<svg xmlns="http://www.w3.org/2000/svg" viewBox="0 0 200 200"><g fill="none" stroke="#1b1206" stroke-width="2.4" stroke-linecap="round" stroke-linejoin="round"><circle cx="100" cy="100" r="62"/><circle cx="100" cy="100" r="52"/><path d="M152.0 100.0Q100 100 113.9 150.1" stroke-width="1.6"/><path d="M126.0 145.0Q100 100 63.6 137.1" stroke-width="1.6"/><path d="M74.0 145.0Q100 100 49.7 87.0" stroke-width="1.6"/><path d="M48.0 100.0Q100 100 86.1 49.9" stroke-width="1.6"/><path d="M74.0 55.0Q100 100 136.4 62.9" stroke-width="1.6"/><path d="M126.0 55.0Q100 100 150.3 113.0" stroke-width="1.6"/><circle cx="100" cy="100" r="8"/><circle cx="157.0" cy="100.0" r="2"/><circle cx="140.3" cy="140.3" r="2"/><circle cx="100.0" cy="157.0" r="2"/><circle cx="59.7" cy="140.3" r="2"/><circle cx="43.0" cy="100.0" r="2"/><circle cx="59.7" cy="59.7" r="2"/><circle cx="100.0" cy="43.0" r="2"/><circle cx="140.3" cy="59.7" r="2"/></g></svg>
