<svg xmlns="http://www.w3.org/2000/svg" viewBox="0 0 200 200"><g fill="none" stroke="#1b1206" stroke-width="2.4" stroke-linecap="round" stroke-linejoin="round"><path d="M36 50l40 12 48-12 40 12v96l-40-12-48 12-40-12z"/><path d="M76 62v96M124 50v96" stroke-width="1.6"/><path d="M54 76c10 4 20 22 34 30s22 14 36 8 20 2 22 16" stroke-width="1.8" stroke-dasharray="5 6"/><path d="M140 124l12 12M152 124l-12 12" stroke-width="3"/><path d="M56 130c6-6 14 0 8 6s-12 2-8-6zM96 80c8-4 14 4 8 8" stroke-width="1.4"/></g></svg>
